<svg xmlns="http://www.w3.org/2000/svg" viewBox="0 0 313.264 70.379">
    <path fill="#2B303B" d="M 35.104,1.323 A 33.867,33.867 0 0 0 1.323,35.19 33.867,33.867 0 0 0 35.19,69.056 33.867,33.867 0 0 0 54.672,62.891 L 59.73,63.852 71.688,66.125 67.671,54.67 65.869,49.532 A 33.867,33.867 0 0 0 69.056,35.19 33.867,33.867 0 0 0 35.19,1.323 33.867,33.867 0 0 0 35.104,1.323 Z M 35.19,5.556 A 29.633,29.633 0 0 1 63.73,27.214 L 46.405,30.27 A 12.7,12.7 0 0 0 34.395,21.697 12.7,12.7 0 0 0 21.695,34.397 12.7,12.7 0 0 0 21.697,34.627 L 5.642,37.457 A 29.633,29.633 0 0 1 5.555,35.191 29.633,29.633 0 0 1 35.19,5.556 Z M 34.396,25.929 A 8.467,8.467 0 0 1 42.862,34.396 8.467,8.467 0 0 1 34.396,42.862 8.467,8.467 0 0 1 25.929,34.396 8.467,8.467 0 0 1 34.396,25.929 Z M 64.574,31.364 A 29.633,29.633 0 0 1 64.823,35.19 29.633,29.633 0 0 1 35.19,64.823 29.633,29.633 0 0 1 6.268,41.644 L 22.479,38.786 A 12.7,12.7 0 0 0 34.396,47.096 12.7,12.7 0 0 0 47.096,34.446 Z" />
    <path fill="#2B303B" d="M 92.922,21.802 Q 96.996,21.802 100.224,23.601 103.452,25.4 105.251,28.628 107.103,31.856 107.103,36.089 107.103,40.323 105.251,43.603 103.452,46.831 100.224,48.63 96.996,50.43 92.922,50.43 89.905,50.43 87.365,49.265 84.878,48.101 83.132,45.879 V 60.378 H 78.052 V 22.066 H 82.92 V 26.511 Q 84.614,24.183 87.207,23.019 89.8,21.802 92.922,21.802 Z M 92.498,45.985 Q 95.198,45.985 97.314,44.768 99.484,43.498 100.7,41.275 101.97,39 101.97,36.089 101.97,33.179 100.7,30.956 99.483,28.681 97.314,27.464 95.197,26.247 92.498,26.247 89.853,26.247 87.683,27.517 85.566,28.734 84.296,30.957 83.079,33.179 83.079,36.089 83.079,38.999 84.296,41.275 85.513,43.498 87.683,44.768 89.853,45.985 92.498,45.985 Z M 125.023,37.042 119.203,42.439 V 50.112 H 114.123 V 10.848 H 119.203 V 36.036 L 134.495,22.066 H 140.634 L 128.834,33.655 141.798,50.112 H 135.554 Z M 181.349,21.802 Q 186.64,21.802 189.709,24.871 192.832,27.94 192.832,33.973 V 50.113 H 187.752 V 34.554 Q 187.752,30.479 185.847,28.415 183.995,26.352 180.502,26.352 176.639,26.352 174.364,28.786 172.088,31.166 172.088,35.665 V 50.111 H 167.008 V 34.555 Q 167.008,30.48 165.103,28.416 163.251,26.353 159.759,26.353 155.896,26.353 153.62,28.787 151.345,31.167 151.345,35.666 V 50.112 H 146.265 V 22.066 H 151.133 V 26.246 Q 152.668,24.077 155.155,22.966 157.642,21.802 160.817,21.802 164.097,21.802 166.637,23.125 169.178,24.448 170.554,26.988 172.141,24.553 174.946,23.178 177.803,21.802 181.349,21.802 Z M 217.154,21.802 Q 222.499,21.802 225.621,24.924 228.796,27.993 228.796,33.973 V 50.113 H 223.716 V 34.554 Q 223.716,30.479 221.758,28.415 219.8,26.352 216.149,26.352 212.021,26.352 209.64,28.786 207.259,31.166 207.259,35.665 V 50.111 H 202.179 V 22.066 H 207.047 V 26.3 Q 208.582,24.13 211.175,22.966 213.821,21.802 217.155,21.802 Z M 248.462,21.802 Q 254.282,21.802 257.352,24.659 260.474,27.517 260.474,33.179 V 50.112 H 255.659 V 46.408 Q 254.389,48.366 252.007,49.424 249.679,50.43 246.451,50.43 241.741,50.43 238.884,48.154 236.08,45.879 236.08,42.174 236.08,38.47 238.778,36.248 241.477,33.973 247.351,33.973 H 255.394 V 32.967 Q 255.394,29.687 253.489,27.94 251.584,26.194 247.88,26.194 245.393,26.194 243.012,27.04 240.63,27.834 238.99,29.21 L 236.873,25.4 Q 239.043,23.654 242.059,22.754 245.075,21.802 248.462,21.802 Z M 247.298,46.514 Q 250.208,46.514 252.325,45.244 254.442,43.921 255.395,41.54 V 37.624 H 247.562 Q 241.107,37.624 241.107,41.963 241.107,44.08 242.747,45.297 244.387,46.514 247.297,46.514 Z M 284.745,21.802 Q 288.819,21.802 292.047,23.601 295.275,25.4 297.074,28.628 298.926,31.856 298.926,36.089 298.926,40.323 297.074,43.603 295.275,46.831 292.047,48.63 288.819,50.43 284.745,50.43 281.728,50.43 279.188,49.265 276.701,48.101 274.955,45.879 V 60.378 H 269.875 V 22.066 H 274.743 V 26.511 Q 276.437,24.183 279.03,23.019 281.623,21.802 284.745,21.802 Z M 284.321,45.985 Q 287.021,45.985 289.137,44.768 291.307,43.498 292.523,41.275 293.793,39 293.793,36.089 293.793,33.179 292.523,30.956 291.306,28.681 289.137,27.464 287.02,26.247 284.321,26.247 281.676,26.247 279.506,27.517 277.389,28.734 276.119,30.957 274.902,33.179 274.902,36.089 274.902,38.999 276.119,41.275 277.336,43.498 279.506,44.768 281.676,45.985 284.321,45.985 Z M 305.945,22.066 H 311.025 V 50.112 H 305.945 Z M 308.485,16.669 Q 307.004,16.669 305.998,15.716 305.046,14.764 305.046,13.388 305.046,12.012 305.998,11.06 307.004,10.054 308.485,10.054 309.967,10.054 310.919,11.007 311.925,11.907 311.925,13.282 311.925,14.711 310.919,15.716 309.967,16.669 308.485,16.669 Z" />
</svg>
